<?xml version="1.0" encoding="utf-8"?>
<!-- Generator: Adobe Illustrator 24.0.2, SVG Export Plug-In . SVG Version: 6.00 Build 0)  -->
<svg version="1.1" id="Layer_1" xmlns="http://www.w3.org/2000/svg" xmlns:xlink="http://www.w3.org/1999/xlink" x="0px" y="0px"
	 viewBox="0 0 50 50" style="enable-background:new 0 0 50 50;" xml:space="preserve">
<style type="text/css">
	.st0{display:none;fill:#FFFFFF;}
	.st1{fill:#E9ECF1;}
	.st2{display:none;fill:#E9ECF1;}
	.st3{display:none;fill:#B4C8DA;}
	.st4{fill:#B4C8DA;}
</style>
<rect x="127" y="8" class="st0" width="45.8" height="45.8"/>
<g>
	<path class="st1" d="M9.1,47h31.6c1.9,0,3.5-1.6,3.5-3.5v-4l-18.8-8.8L9.1,47z"/>
	<path class="st1" d="M36.7,17.3L47,27.6V6.3c0-1.9-1.6-3.5-3.5-3.5H9.3c-1.9,0-3.5,1.6-3.5,3.5v11.1l19.7,9.2l9.3-9.3
		C35.3,16.8,36.2,16.8,36.7,17.3z M17.6,19.7c-2.8,0-5-2.3-5-5s2.3-5,5-5s5,2.3,5,5S20.4,19.7,17.6,19.7z"/>
	<circle class="st1" cx="17.6" cy="14.7" r="2.2"/>
	<path class="st1" d="M46.8,31.4l-11.1-11l-7.5,7.5L47,36.6v-5.1C46.9,31.5,46.8,31.4,46.8,31.4z"/>
	<path class="st1" d="M3,43.5c0,1.5,1,2.8,2.4,3.3c0,0,0,0,0-0.1l17.3-17.3L3,20.4V43.5z"/>
	<polygon class="st2" points="47,40.9 47,9.3 47,9.3 47,40.9 	"/>
	<polygon class="st2" points="47,40.9 47,40.9 47,43.5 47,43.5 	"/>
	<polygon class="st2" points="6.5,49.9 40.7,49.9 40.7,49.9 6.5,49.9 	"/>
	<path class="st3" d="M0.1,43.5L0.1,43.5c0,3.5,2.8,6.3,6.3,6.3h0C3,49.9,0.1,47,0.1,43.5z"/>
	<path class="st3" d="M47,9.3L47,9.3C47,5.8,44.2,3,40.7,3h0C44.2,3,47,5.8,47,9.3z"/>
	<path class="st3" d="M6.5,3L6.5,3C3,3,0.1,5.8,0.1,9.3v0C0.1,5.8,3,3,6.5,3z"/>
	<path class="st3" d="M40.7,49.9L40.7,49.9c3.5,0,6.3-2.8,6.3-6.3v0C47,47,44.2,49.9,40.7,49.9z"/>
	<path class="st4" d="M5.8,6.3c0-1.9,1.6-3.5,3.5-3.5h34.3c1.9,0,3.5,1.6,3.5,3.5v21.3L36.7,17.3c-0.6-0.6-1.4-0.6-2,0l-9.3,9.3
		l2.7,1.3l7.5-7.5l11.1,11c0.1,0.1,0.2,0.1,0.3,0.2v5.1l2.8,1.3V6.3C49.8,2.9,47,0,43.5,0H9.3C5.8,0,3,2.9,3,6.4v9.7l2.8,1.3V6.3z"
		/>
	<path class="st4" d="M44.2,39.6v4c0,1.9-1.6,3.5-3.5,3.5H9.1l16.2-16.2l-2.7-1.3L5.4,46.8c0,0,0,0,0,0.1C4,46.4,3,45.1,3,43.5V20.4
		L0.1,19v24.5c0,3.5,2.8,6.3,6.3,6.3h34.3c3.5,0,6.3-2.8,6.3-6.3v-2.6L44.2,39.6z"/>
	<path class="st4" d="M17.6,9.7c-2.8,0-5,2.3-5,5s2.3,5,5,5s5-2.3,5-5S20.4,9.7,17.6,9.7z M17.6,16.9c-1.2,0-2.2-1-2.2-2.2
		s1-2.2,2.2-2.2s2.2,1,2.2,2.2S18.9,16.9,17.6,16.9z"/>
</g>
</svg>
