<?xml version="1.0" encoding="utf-8"?>
<!-- Generator: Adobe Illustrator 22.0.1, SVG Export Plug-In . SVG Version: 6.00 Build 0)  -->
<svg version="1.1" id="Layer_1" xmlns="http://www.w3.org/2000/svg" xmlns:xlink="http://www.w3.org/1999/xlink" x="0px" y="0px"
	 viewBox="0 0 400 451" style="enable-background:new 0 0 400 451;" xml:space="preserve">
<rect x="6" y="5" style="fill:none;stroke:#D1D3D4;stroke-width:2;stroke-miterlimit:10;" width="389" height="437.7"/>
<circle style="fill:none;stroke:#D1D3D4;stroke-width:5;stroke-miterlimit:10;" cx="48.5" cy="52.5" r="22.5"/>
<rect x="87.7" y="31" style="fill:none;stroke:#D1D3D4;stroke-width:5;stroke-miterlimit:10;" width="285.3" height="15.3"/>
<rect x="26" y="98.3" style="fill:none;stroke:#D1D3D4;stroke-width:5;stroke-miterlimit:10;" width="347" height="136"/>
<rect x="26" y="251" style="fill:none;stroke:#D1D3D4;stroke-width:5;stroke-miterlimit:10;" width="347" height="15.3"/>
<rect x="26" y="281" style="fill:none;stroke:#D1D3D4;stroke-width:5;stroke-miterlimit:10;" width="347" height="40"/>
<rect x="25" y="381" style="fill:none;stroke:#D1D3D4;stroke-width:2;stroke-miterlimit:10;" width="41" height="41"/>
<rect x="75" y="381" style="fill:none;stroke:#2EAAE8;stroke-width:5;stroke-miterlimit:10;" width="41" height="41"/>
<rect x="125" y="381" style="fill:none;stroke:#2EAAE8;stroke-width:5;stroke-miterlimit:10;" width="41" height="41"/>
<rect x="175" y="381" style="fill:none;stroke:#2EAAE8;stroke-width:5;stroke-miterlimit:10;" width="41" height="41"/>
<rect x="225" y="381" style="fill:none;stroke:#2EAAE8;stroke-width:5;stroke-miterlimit:10;" width="41" height="41"/>
<g>
	<path style="fill:#5C92BF;" d="M298.6,405.5h-1.4v-5.4c0-0.4,0-1,0.1-1.6h0c-0.1,0.4-0.2,0.6-0.2,0.8l-2.5,6.3h-1l-2.5-6.2
		c-0.1-0.2-0.1-0.5-0.2-0.8h0c0,0.3,0,0.9,0,1.6v5.4h-1.3v-8.4h2l2.2,5.6c0.2,0.4,0.3,0.8,0.3,1h0c0.1-0.4,0.3-0.8,0.4-1l2.3-5.6
		h1.9V405.5z"/>
	<path style="fill:#5C92BF;" d="M303.1,405.6c-0.9,0-1.7-0.3-2.2-0.8s-0.8-1.3-0.8-2.2c0-1,0.3-1.8,0.9-2.4s1.4-0.8,2.3-0.8
		c0.9,0,1.7,0.3,2.2,0.8s0.8,1.3,0.8,2.3c0,1-0.3,1.7-0.8,2.3S304.1,405.6,303.1,405.6z M303.2,400.4c-0.5,0-1,0.2-1.3,0.6
		s-0.5,0.9-0.5,1.5c0,0.6,0.2,1.1,0.5,1.5s0.7,0.5,1.3,0.5c0.5,0,0.9-0.2,1.2-0.5s0.4-0.9,0.4-1.5c0-0.7-0.1-1.2-0.4-1.5
		S303.7,400.4,303.2,400.4z"/>
	<path style="fill:#5C92BF;" d="M311.1,400.8c-0.2-0.1-0.4-0.2-0.7-0.2c-0.4,0-0.7,0.2-1,0.5s-0.4,0.9-0.4,1.5v2.9h-1.4v-6h1.4v1.2
		h0c0.1-0.4,0.3-0.8,0.6-1s0.6-0.4,0.9-0.4c0.2,0,0.4,0,0.6,0.1V400.8z"/>
	<path style="fill:#5C92BF;" d="M317.1,402.9H313c0,0.6,0.2,1,0.5,1.3s0.8,0.5,1.3,0.5c0.6,0,1.2-0.2,1.8-0.6v1.1
		c-0.5,0.3-1.3,0.5-2.2,0.5c-0.9,0-1.6-0.3-2.1-0.8s-0.8-1.3-0.8-2.3c0-0.9,0.3-1.7,0.8-2.3s1.2-0.9,2.1-0.9s1.5,0.3,1.9,0.8
		s0.7,1.3,0.7,2.2V402.9z M315.7,401.9c0-0.5-0.1-0.9-0.3-1.1s-0.5-0.4-0.9-0.4c-0.4,0-0.7,0.1-1,0.4s-0.4,0.7-0.5,1.1H315.7z"/>
	<path style="fill:#5C92BF;" d="M327.6,402.4l-5.2,2.5v-1.1l3.8-1.7v0l-3.8-1.9V399l5.2,2.7V402.4z"/>
</g>
<path style="fill:#FFFFFF;stroke:#D1D3D4;stroke-width:4;stroke-miterlimit:10;" d="M382.5,380.1H310l-6.3,10.1l-7.1-10.1h-73.1
	c-6.6,0-12-5.4-12-12V261.7c0-6.6,5.4-12,12-12h159c6.6,0,12,5.4,12,12v106.5C394.5,374.7,389.1,380.1,382.5,380.1z"/>
<g>
	<path style="fill:#414042;" d="M234.3,271.1h-1.7v-4.5c0-0.5,0-1,0.1-1.6h0c-0.1,0.5-0.2,0.8-0.2,1l-1.8,5.2h-1.4l-1.8-5.1
		c0-0.1-0.1-0.5-0.2-1.1h0c0,0.7,0.1,1.4,0.1,2v4.2h-1.5v-7.6h2.5l1.6,4.5c0.1,0.4,0.2,0.7,0.3,1.1h0c0.1-0.4,0.2-0.8,0.3-1.1
		l1.6-4.5h2.4V271.1z"/>
	<path style="fill:#414042;" d="M238.4,271.2c-0.9,0-1.6-0.3-2.1-0.8s-0.8-1.2-0.8-2.1c0-0.9,0.3-1.6,0.8-2.1s1.3-0.8,2.2-0.8
		c0.9,0,1.6,0.3,2.1,0.8c0.5,0.5,0.8,1.2,0.8,2c0,0.9-0.3,1.6-0.8,2.1C240.1,271,239.4,271.2,238.4,271.2z M238.5,266.8
		c-0.4,0-0.7,0.1-0.9,0.4c-0.2,0.3-0.3,0.7-0.3,1.2c0,1,0.4,1.6,1.3,1.6c0.8,0,1.2-0.5,1.2-1.6C239.7,267.3,239.3,266.8,238.5,266.8
		z"/>
	<path style="fill:#414042;" d="M246,267.2c-0.2-0.1-0.4-0.2-0.7-0.2c-0.4,0-0.6,0.1-0.9,0.4c-0.2,0.3-0.3,0.6-0.3,1.1v2.6h-1.7
		v-5.4h1.7v1h0c0.3-0.7,0.7-1.1,1.4-1.1c0.2,0,0.3,0,0.4,0.1V267.2z"/>
	<path style="fill:#414042;" d="M251.6,268.9h-3.5c0.1,0.8,0.6,1.2,1.5,1.2c0.6,0,1.1-0.1,1.6-0.4v1.2c-0.5,0.3-1.2,0.4-2,0.4
		c-0.9,0-1.6-0.2-2-0.7s-0.7-1.2-0.7-2c0-0.9,0.3-1.6,0.8-2.1s1.2-0.8,1.9-0.8c0.8,0,1.4,0.2,1.8,0.7c0.4,0.5,0.6,1.1,0.6,1.9V268.9
		z M250.1,267.8c0-0.8-0.3-1.2-0.9-1.2c-0.3,0-0.5,0.1-0.7,0.3c-0.2,0.2-0.3,0.5-0.4,0.8H250.1z"/>
	<path style="fill:#414042;" d="M255.4,270.8v-1.7c0.3,0.3,0.6,0.5,1,0.6c0.4,0.1,0.7,0.2,1.1,0.2c0.2,0,0.4,0,0.6-0.1
		c0.2,0,0.3-0.1,0.4-0.2c0.1-0.1,0.2-0.2,0.2-0.2s0.1-0.2,0.1-0.3c0-0.1,0-0.3-0.1-0.4s-0.2-0.2-0.3-0.3c-0.1-0.1-0.3-0.2-0.5-0.3
		c-0.2-0.1-0.4-0.2-0.7-0.3c-0.6-0.2-1-0.5-1.3-0.9s-0.4-0.8-0.4-1.3c0-0.4,0.1-0.7,0.2-1c0.2-0.3,0.4-0.5,0.6-0.7s0.6-0.3,1-0.4
		c0.4-0.1,0.7-0.1,1.1-0.1c0.4,0,0.7,0,1.1,0.1c0.3,0,0.6,0.1,0.8,0.2v1.6c-0.1-0.1-0.3-0.2-0.4-0.2c-0.1-0.1-0.3-0.1-0.5-0.2
		c-0.2,0-0.3-0.1-0.5-0.1s-0.3,0-0.4,0c-0.2,0-0.4,0-0.5,0.1c-0.2,0-0.3,0.1-0.4,0.2c-0.1,0.1-0.2,0.1-0.3,0.2
		c-0.1,0.1-0.1,0.2-0.1,0.3c0,0.1,0,0.2,0.1,0.3c0.1,0.1,0.2,0.2,0.3,0.3c0.1,0.1,0.3,0.2,0.5,0.3c0.2,0.1,0.4,0.2,0.6,0.3
		c0.3,0.1,0.6,0.3,0.8,0.4c0.2,0.1,0.4,0.3,0.6,0.5s0.3,0.4,0.4,0.6c0.1,0.2,0.1,0.5,0.1,0.8c0,0.4-0.1,0.8-0.2,1.1
		c-0.2,0.3-0.4,0.5-0.7,0.7c-0.3,0.2-0.6,0.3-1,0.4c-0.4,0.1-0.8,0.1-1.2,0.1c-0.4,0-0.8,0-1.2-0.1C256,271.1,255.7,271,255.4,270.8
		z"/>
	<path style="fill:#414042;" d="M266.9,271.1h-1.7V268c0-0.8-0.3-1.2-0.9-1.2c-0.3,0-0.5,0.1-0.7,0.3c-0.2,0.2-0.3,0.5-0.3,0.8v3.1
		h-1.7v-8h1.7v3.4h0c0.4-0.6,1-0.9,1.7-0.9c1.2,0,1.8,0.7,1.8,2.2V271.1z"/>
	<path style="fill:#414042;" d="M272.7,271.1h-1.6v-0.8h0c-0.4,0.6-0.9,0.9-1.6,0.9c-0.5,0-0.9-0.1-1.2-0.4
		c-0.3-0.3-0.5-0.7-0.5-1.2c0-1.1,0.6-1.7,1.9-1.8l1.5-0.2c0-0.6-0.3-0.9-1-0.9c-0.6,0-1.3,0.2-1.8,0.6V266c0.2-0.1,0.6-0.2,1-0.3
		c0.4-0.1,0.8-0.1,1.1-0.1c1.5,0,2.3,0.8,2.3,2.3V271.1z M271.2,268.9v-0.4l-1,0.1c-0.5,0.1-0.8,0.3-0.8,0.7c0,0.2,0.1,0.3,0.2,0.5
		c0.1,0.1,0.3,0.2,0.5,0.2c0.3,0,0.6-0.1,0.8-0.3C271.1,269.5,271.2,269.2,271.2,268.9z"/>
	<path style="fill:#414042;" d="M277.6,267.2c-0.2-0.1-0.4-0.2-0.7-0.2c-0.4,0-0.6,0.1-0.9,0.4c-0.2,0.3-0.3,0.6-0.3,1.1v2.6h-1.7
		v-5.4h1.7v1h0c0.3-0.7,0.7-1.1,1.4-1.1c0.2,0,0.3,0,0.4,0.1V267.2z"/>
	<path style="fill:#414042;" d="M279.3,264.8c-0.3,0-0.5-0.1-0.7-0.3c-0.2-0.2-0.3-0.4-0.3-0.6c0-0.3,0.1-0.5,0.3-0.6
		c0.2-0.2,0.4-0.2,0.7-0.2c0.3,0,0.5,0.1,0.7,0.2c0.2,0.2,0.3,0.4,0.3,0.6c0,0.3-0.1,0.5-0.3,0.6
		C279.8,264.7,279.5,264.8,279.3,264.8z M280.1,271.1h-1.7v-5.4h1.7V271.1z"/>
	<path style="fill:#414042;" d="M286.7,271.1h-1.7v-3c0-0.8-0.3-1.3-0.9-1.3c-0.3,0-0.5,0.1-0.7,0.3c-0.2,0.2-0.3,0.5-0.3,0.8v3.1
		h-1.7v-5.4h1.7v0.9h0c0.4-0.7,1-1,1.7-1c1.2,0,1.8,0.7,1.8,2.2V271.1z"/>
	<path style="fill:#414042;" d="M293.4,270.5c0,1-0.3,1.8-0.9,2.3c-0.6,0.6-1.4,0.8-2.5,0.8c-0.7,0-1.3-0.1-1.7-0.3v-1.4
		c0.6,0.3,1.1,0.5,1.7,0.5c0.6,0,1-0.1,1.3-0.4c0.3-0.3,0.5-0.7,0.5-1.2v-0.4h0c-0.4,0.6-0.9,0.9-1.7,0.9c-0.7,0-1.2-0.2-1.6-0.7
		c-0.4-0.5-0.6-1.1-0.6-2c0-0.9,0.2-1.6,0.7-2.2s1-0.8,1.8-0.8c0.7,0,1.2,0.3,1.5,0.8h0v-0.6h1.7V270.5z M291.7,268.5v-0.4
		c0-0.3-0.1-0.6-0.3-0.9c-0.2-0.2-0.5-0.4-0.8-0.4c-0.4,0-0.7,0.1-0.9,0.4s-0.3,0.7-0.3,1.2c0,0.5,0.1,0.8,0.3,1.1
		c0.2,0.3,0.5,0.4,0.8,0.4c0.3,0,0.6-0.1,0.8-0.4C291.6,269.3,291.7,268.9,291.7,268.5z"/>
	<path style="fill:#414042;" d="M301.1,271.2c-1.1,0-2-0.4-2.7-1.1c-0.7-0.7-1-1.6-1-2.8c0-1.2,0.3-2.2,1-2.9
		c0.7-0.7,1.6-1.1,2.8-1.1c1.1,0,2,0.4,2.6,1.1s1,1.6,1,2.8c0,1.2-0.3,2.2-1,2.9C303.1,270.9,302.2,271.2,301.1,271.2z M301.2,264.9
		c-0.6,0-1.1,0.2-1.4,0.7c-0.4,0.5-0.5,1-0.5,1.8c0,0.8,0.2,1.3,0.5,1.8c0.4,0.4,0.8,0.7,1.4,0.7c0.6,0,1.1-0.2,1.4-0.6
		c0.3-0.4,0.5-1,0.5-1.8c0-0.8-0.2-1.4-0.5-1.8C302.2,265.1,301.8,264.9,301.2,264.9z"/>
	<path style="fill:#414042;" d="M307.7,270.5L307.7,270.5l0,3.1H306v-7.9h1.7v0.8h0c0.4-0.6,1-0.9,1.7-0.9c0.7,0,1.2,0.2,1.6,0.7
		c0.4,0.5,0.6,1.1,0.6,2c0,0.9-0.2,1.6-0.7,2.2c-0.4,0.5-1,0.8-1.8,0.8C308.5,271.2,308,271,307.7,270.5z M307.6,268.3v0.4
		c0,0.4,0.1,0.7,0.3,0.9c0.2,0.2,0.5,0.4,0.8,0.4c0.4,0,0.7-0.1,0.9-0.4c0.2-0.3,0.3-0.7,0.3-1.3c0-1-0.4-1.4-1.1-1.4
		c-0.3,0-0.6,0.1-0.8,0.4S307.6,267.8,307.6,268.3z"/>
	<path style="fill:#414042;" d="M316,271c-0.2,0.1-0.6,0.2-1.1,0.2c-1.2,0-1.8-0.6-1.8-1.8v-2.5h-0.9v-1.2h0.9v-1.2l1.7-0.5v1.6h1.2
		v1.2h-1.2v2.2c0,0.6,0.2,0.8,0.7,0.8c0.2,0,0.4-0.1,0.5-0.2V271z"/>
	<path style="fill:#414042;" d="M317.8,264.8c-0.3,0-0.5-0.1-0.7-0.3c-0.2-0.2-0.3-0.4-0.3-0.6c0-0.3,0.1-0.5,0.3-0.6
		c0.2-0.2,0.4-0.2,0.7-0.2c0.3,0,0.5,0.1,0.7,0.2c0.2,0.2,0.3,0.4,0.3,0.6c0,0.3-0.1,0.5-0.3,0.6
		C318.3,264.7,318.1,264.8,317.8,264.8z M318.6,271.1h-1.7v-5.4h1.7V271.1z"/>
	<path style="fill:#414042;" d="M322.6,271.2c-0.9,0-1.6-0.3-2.1-0.8s-0.8-1.2-0.8-2.1c0-0.9,0.3-1.6,0.8-2.1s1.3-0.8,2.2-0.8
		c0.9,0,1.6,0.3,2.1,0.8s0.8,1.2,0.8,2c0,0.9-0.3,1.6-0.8,2.1C324.2,271,323.5,271.2,322.6,271.2z M322.6,266.8
		c-0.4,0-0.7,0.1-0.9,0.4c-0.2,0.3-0.3,0.7-0.3,1.2c0,1,0.4,1.6,1.3,1.6c0.8,0,1.2-0.5,1.2-1.6C323.8,267.3,323.4,266.8,322.6,266.8
		z"/>
	<path style="fill:#414042;" d="M331.9,271.1h-1.7v-3c0-0.8-0.3-1.3-0.9-1.3c-0.3,0-0.5,0.1-0.7,0.3c-0.2,0.2-0.3,0.5-0.3,0.8v3.1
		h-1.7v-5.4h1.7v0.9h0c0.4-0.7,1-1,1.7-1c1.2,0,1.8,0.7,1.8,2.2V271.1z"/>
	<path style="fill:#414042;" d="M332.8,271v-1.4c0.3,0.2,0.5,0.3,0.8,0.4s0.5,0.1,0.8,0.1c0.3,0,0.5,0,0.7-0.1s0.3-0.2,0.3-0.4
		c0-0.1,0-0.2-0.1-0.3c-0.1-0.1-0.2-0.1-0.3-0.2c-0.1-0.1-0.3-0.1-0.4-0.1c-0.1,0-0.3-0.1-0.4-0.1c-0.2-0.1-0.4-0.2-0.6-0.3
		s-0.3-0.2-0.4-0.3c-0.1-0.1-0.2-0.3-0.3-0.4c-0.1-0.2-0.1-0.4-0.1-0.6c0-0.3,0.1-0.6,0.2-0.8c0.1-0.2,0.3-0.4,0.5-0.5
		c0.2-0.1,0.5-0.2,0.8-0.3c0.3-0.1,0.6-0.1,0.9-0.1c0.2,0,0.5,0,0.7,0.1c0.2,0,0.5,0.1,0.7,0.2v1.3c-0.2-0.1-0.4-0.2-0.7-0.3
		c-0.2-0.1-0.5-0.1-0.7-0.1c-0.1,0-0.2,0-0.3,0c-0.1,0-0.2,0-0.3,0.1c-0.1,0-0.1,0.1-0.2,0.1c0,0.1-0.1,0.1-0.1,0.2
		c0,0.1,0,0.2,0.1,0.3c0.1,0.1,0.1,0.1,0.2,0.2c0.1,0.1,0.2,0.1,0.3,0.1s0.3,0.1,0.4,0.1c0.2,0.1,0.4,0.2,0.6,0.3s0.3,0.2,0.5,0.3
		c0.1,0.1,0.2,0.3,0.3,0.4s0.1,0.4,0.1,0.6c0,0.3-0.1,0.6-0.2,0.8s-0.3,0.4-0.6,0.6c-0.2,0.1-0.5,0.2-0.8,0.3s-0.6,0.1-0.9,0.1
		C333.9,271.2,333.3,271.1,332.8,271z"/>
</g>
<rect x="224.3" y="297" style="fill:none;stroke:#E05FAC;stroke-width:5;stroke-miterlimit:10;" width="29.6" height="29.6"/>
<rect x="266.3" y="297" style="fill:none;stroke:#E05FAC;stroke-width:5;stroke-miterlimit:10;" width="29.6" height="29.6"/>
</svg>
