<?xml version="1.0" encoding="utf-8"?>
<!-- Generator: Adobe Illustrator 22.0.1, SVG Export Plug-In . SVG Version: 6.00 Build 0)  -->
<svg version="1.1" xmlns="http://www.w3.org/2000/svg" xmlns:xlink="http://www.w3.org/1999/xlink" x="0px" y="0px"
	 viewBox="0 0 400 823.5" style="enable-background:new 0 0 400 823.5;" xml:space="preserve">
<g id="Layer_1">
	<rect x="6" y="5" style="fill:none;stroke:#D1D3D4;stroke-width:2;stroke-miterlimit:10;" width="389" height="437.7"/>
	<circle style="fill:none;stroke:#D1D3D4;stroke-width:5;stroke-miterlimit:10;" cx="48.5" cy="52.5" r="22.5"/>
	<rect x="87.7" y="31" style="fill:none;stroke:#D1D3D4;stroke-width:5;stroke-miterlimit:10;" width="285.3" height="15.3"/>
	<rect x="26" y="98.3" style="fill:none;stroke:#D1D3D4;stroke-width:5;stroke-miterlimit:10;" width="347" height="136"/>
	<rect x="26" y="251" style="fill:none;stroke:#D1D3D4;stroke-width:5;stroke-miterlimit:10;" width="347" height="15.3"/>
	<rect x="26" y="281" style="fill:none;stroke:#D1D3D4;stroke-width:5;stroke-miterlimit:10;" width="347" height="40"/>
	<rect x="28" y="381" style="fill:none;stroke:#2EAAE8;stroke-width:5;stroke-miterlimit:10;" width="41" height="41"/>
	<rect x="90.8" y="381" style="fill:none;stroke:#2EAAE8;stroke-width:5;stroke-miterlimit:10;" width="41" height="41"/>
	<rect x="153.5" y="381" style="fill:none;stroke:#2EAAE8;stroke-width:5;stroke-miterlimit:10;" width="41" height="41"/>
	<rect x="216.3" y="381" style="fill:none;stroke:#2EAAE8;stroke-width:5;stroke-miterlimit:10;" width="41" height="41"/>
	<rect x="28" y="571" style="fill:none;stroke:#E05FAC;stroke-width:5;stroke-miterlimit:10;" width="41" height="41"/>
	<g>
		<rect x="279" y="381" style="fill:none;stroke:#D1D3D4;stroke-width:2;stroke-miterlimit:10;" width="41" height="41"/>
		<g>
			<g>
				<defs>
					<rect id="SVGID_1_" x="292.9" y="390.3" width="14.4" height="22.3"/>
				</defs>
				<clipPath id="SVGID_2_">
					<use xlink:href="#SVGID_1_"  style="overflow:visible;"/>
				</clipPath>
				<path style="clip-path:url(#SVGID_2_);" d="M304.9,396.7h-1.5c-0.3,0-0.5,0.2-0.5,0.5c0,0.3,0.2,0.5,0.5,0.5h1.5
					c0.8,0,1.4,0.6,1.4,1.4v11c0,0.8-0.6,1.4-1.4,1.4h-9.5c-0.8,0-1.4-0.6-1.4-1.4v-11c0-0.8,0.6-1.4,1.4-1.4h1.5
					c0.3,0,0.5-0.2,0.5-0.5c0-0.3-0.2-0.5-0.5-0.5h-1.5c-1.3,0-2.4,1.1-2.4,2.4v11c0,1.3,1.1,2.4,2.4,2.4h9.5c1.3,0,2.4-1.1,2.4-2.4
					v-11C307.3,397.8,306.2,396.7,304.9,396.7L304.9,396.7z M304.9,396.7"/>
				<path style="clip-path:url(#SVGID_2_);" d="M297.3,394.5l2.3-2.3v12.1c0,0.3,0.2,0.5,0.5,0.5c0.3,0,0.5-0.2,0.5-0.5v-12.1
					l2.3,2.3c0.1,0.1,0.2,0.2,0.4,0.2c0.1,0,0.3-0.1,0.4-0.2c0.2-0.2,0.2-0.5,0-0.8l-3.2-3.2c-0.2-0.2-0.5-0.2-0.8,0l-3.2,3.2
					c-0.2,0.2-0.2,0.5,0,0.8C296.8,394.7,297.1,394.7,297.3,394.5L297.3,394.5z M297.3,394.5"/>
			</g>
		</g>
	</g>
	<rect x="6" y="485" style="fill:none;stroke:#D1D3D4;stroke-width:2;stroke-miterlimit:10;" width="389" height="331"/>
	<g>
		<path d="M31.1,534.5c-0.1-1.1-0.1-2.5-0.1-3.5h0c-0.3,0.9-0.6,2-1,3.1l-1.4,3.9h-0.8l-1.3-3.8c-0.4-1.1-0.7-2.2-0.9-3.1h0
			c0,1-0.1,2.4-0.2,3.6l-0.2,3.5h-1l0.6-8.1H26l1.4,3.9c0.3,1,0.6,1.9,0.8,2.7h0c0.2-0.8,0.5-1.7,0.9-2.7l1.4-3.9h1.3l0.5,8.1h-1
			L31.1,534.5z"/>
		<path d="M40.9,533.9c0,2.8-1.7,4.3-3.8,4.3c-2.1,0-3.6-1.7-3.6-4.1c0-2.6,1.6-4.2,3.8-4.2C39.5,529.8,40.9,531.5,40.9,533.9z
			 M34.6,534c0,1.7,0.9,3.3,2.6,3.3c1.7,0,2.6-1.5,2.6-3.4c0-1.6-0.8-3.3-2.6-3.3C35.5,530.6,34.6,532.2,34.6,534z"/>
		<path d="M42.2,530c0.5-0.1,1.3-0.2,2-0.2c1.1,0,1.8,0.2,2.3,0.7c0.4,0.4,0.6,0.9,0.6,1.5c0,1.1-0.7,1.8-1.5,2.1v0
			c0.6,0.2,1,0.8,1.2,1.6c0.3,1.1,0.5,1.9,0.6,2.2h-1.1c-0.1-0.2-0.3-0.9-0.5-1.9c-0.2-1.1-0.7-1.5-1.6-1.6h-1v3.5h-1V530z
			 M43.3,533.7h1.1c1.1,0,1.8-0.6,1.8-1.5c0-1-0.8-1.5-1.9-1.5c-0.5,0-0.9,0-1,0.1V533.7z"/>
		<path d="M52.9,534.2h-3.1v2.9h3.5v0.9h-4.5v-8.1h4.4v0.9h-3.3v2.6h3.1V534.2z"/>
		<path d="M58.4,535.5l-0.8,2.5h-1.1l2.7-8.1h1.3l2.8,8.1h-1.1l-0.9-2.5H58.4z M61.1,534.6l-0.8-2.3c-0.2-0.5-0.3-1-0.4-1.5h0
			c-0.1,0.5-0.3,1-0.4,1.5l-0.8,2.3H61.1z"/>
		<path d="M64.5,530c0.5-0.1,1.2-0.2,2-0.2c1,0,1.8,0.2,2.3,0.7c0.4,0.4,0.7,1,0.7,1.7c0,0.7-0.2,1.3-0.6,1.7
			c-0.6,0.6-1.5,0.9-2.5,0.9c-0.3,0-0.6,0-0.8-0.1v3.2h-1V530z M65.5,533.9c0.2,0.1,0.5,0.1,0.9,0.1c1.3,0,2-0.6,2-1.7
			c0-1.1-0.8-1.6-1.9-1.6c-0.5,0-0.8,0-1,0.1V533.9z"/>
		<path d="M70.9,530c0.5-0.1,1.2-0.2,2-0.2c1,0,1.8,0.2,2.3,0.7c0.4,0.4,0.7,1,0.7,1.7c0,0.7-0.2,1.3-0.6,1.7
			c-0.6,0.6-1.5,0.9-2.5,0.9c-0.3,0-0.6,0-0.8-0.1v3.2h-1V530z M71.9,533.9c0.2,0.1,0.5,0.1,0.9,0.1c1.3,0,2-0.6,2-1.7
			c0-1.1-0.8-1.6-1.9-1.6c-0.5,0-0.8,0-1,0.1V533.9z"/>
		<path d="M77.1,536.7c0.5,0.3,1.2,0.5,1.9,0.5c1.1,0,1.7-0.6,1.7-1.4c0-0.8-0.4-1.2-1.5-1.6c-1.3-0.5-2.1-1.2-2.1-2.3
			c0-1.3,1-2.2,2.6-2.2c0.8,0,1.4,0.2,1.8,0.4l-0.3,0.9c-0.3-0.1-0.8-0.4-1.5-0.4c-1.1,0-1.5,0.7-1.5,1.2c0,0.8,0.5,1.1,1.6,1.6
			c1.4,0.5,2.1,1.2,2.1,2.4c0,1.2-0.9,2.3-2.8,2.3c-0.8,0-1.6-0.2-2.1-0.5L77.1,536.7z"/>
		<path d="M86.8,530.8h-2.5v-0.9h6v0.9h-2.5v7.2h-1.1V530.8z"/>
		<path d="M97.8,533.9c0,2.8-1.7,4.3-3.8,4.3c-2.1,0-3.6-1.7-3.6-4.1c0-2.6,1.6-4.2,3.8-4.2C96.3,529.8,97.8,531.5,97.8,533.9z
			 M91.5,534c0,1.7,0.9,3.3,2.6,3.3c1.7,0,2.6-1.5,2.6-3.4c0-1.6-0.8-3.3-2.6-3.3C92.4,530.6,91.5,532.2,91.5,534z"/>
		<path d="M101.5,536.7c0.5,0.3,1.2,0.5,1.9,0.5c1.1,0,1.7-0.6,1.7-1.4c0-0.8-0.4-1.2-1.5-1.6c-1.3-0.5-2.1-1.2-2.1-2.3
			c0-1.3,1-2.2,2.6-2.2c0.8,0,1.4,0.2,1.8,0.4l-0.3,0.9c-0.3-0.1-0.8-0.4-1.5-0.4c-1.1,0-1.5,0.7-1.5,1.2c0,0.8,0.5,1.1,1.6,1.6
			c1.4,0.5,2.1,1.2,2.1,2.4c0,1.2-0.9,2.3-2.8,2.3c-0.8,0-1.6-0.2-2.1-0.5L101.5,536.7z"/>
		<path d="M108.6,529.9v3.4h3.9v-3.4h1.1v8.1h-1.1v-3.8h-3.9v3.8h-1v-8.1H108.6z"/>
		<path d="M116.7,535.5l-0.8,2.5h-1.1l2.7-8.1h1.3l2.8,8.1h-1.1l-0.9-2.5H116.7z M119.4,534.6l-0.8-2.3c-0.2-0.5-0.3-1-0.4-1.5h0
			c-0.1,0.5-0.3,1-0.4,1.5l-0.8,2.3H119.4z"/>
		<path d="M122.8,530c0.5-0.1,1.3-0.2,2-0.2c1.1,0,1.8,0.2,2.3,0.7c0.4,0.4,0.6,0.9,0.6,1.5c0,1.1-0.7,1.8-1.5,2.1v0
			c0.6,0.2,1,0.8,1.2,1.6c0.3,1.1,0.5,1.9,0.6,2.2h-1.1c-0.1-0.2-0.3-0.9-0.5-1.9c-0.2-1.1-0.7-1.5-1.6-1.6h-1v3.5h-1V530z
			 M123.8,533.7h1.1c1.1,0,1.8-0.6,1.8-1.5c0-1-0.8-1.5-1.9-1.5c-0.5,0-0.9,0-1,0.1V533.7z"/>
		<path d="M133.4,534.2h-3.1v2.9h3.5v0.9h-4.5v-8.1h4.4v0.9h-3.3v2.6h3.1V534.2z"/>
	</g>
	<rect x="88" y="571" style="fill:none;stroke:#E05FAC;stroke-width:5;stroke-miterlimit:10;" width="41" height="41"/>
	<rect x="148" y="571" style="fill:none;stroke:#E05FAC;stroke-width:5;stroke-miterlimit:10;" width="41" height="41"/>
	<g>
		<path d="M31.8,714.9c0,2.8-1.7,4.3-3.8,4.3c-2.1,0-3.6-1.7-3.6-4.1c0-2.6,1.6-4.2,3.8-4.2C30.4,710.8,31.8,712.5,31.8,714.9z
			 M25.5,715c0,1.7,0.9,3.3,2.6,3.3c1.7,0,2.6-1.5,2.6-3.4c0-1.6-0.8-3.3-2.6-3.3C26.4,711.6,25.5,713.2,25.5,715z"/>
		<path d="M34.4,711.8H32v-0.9h6v0.9h-2.5v7.2h-1.1V711.8z"/>
		<path d="M39.9,710.9v3.4h3.9v-3.4h1.1v8.1h-1.1v-3.8h-3.9v3.8h-1v-8.1H39.9z"/>
		<path d="M50.9,715.2h-3.1v2.9h3.5v0.9h-4.5v-8.1H51v0.9h-3.3v2.6h3.1V715.2z"/>
		<path d="M52.6,711c0.5-0.1,1.3-0.2,2-0.2c1.1,0,1.8,0.2,2.3,0.7c0.4,0.4,0.6,0.9,0.6,1.5c0,1.1-0.7,1.8-1.5,2.1v0
			c0.6,0.2,1,0.8,1.2,1.6c0.3,1.1,0.5,1.9,0.6,2.2h-1.1c-0.1-0.2-0.3-0.9-0.5-1.9c-0.2-1.1-0.7-1.5-1.6-1.6h-1v3.5h-1V711z
			 M53.6,714.7h1.1c1.1,0,1.8-0.6,1.8-1.5c0-1-0.8-1.5-1.9-1.5c-0.5,0-0.9,0-1,0.1V714.7z"/>
		<path d="M62.9,716.5L62,719H61l2.7-8.1H65l2.8,8.1h-1.1l-0.9-2.5H62.9z M65.5,715.6l-0.8-2.3c-0.2-0.5-0.3-1-0.4-1.5h0
			c-0.1,0.5-0.3,1-0.4,1.5l-0.8,2.3H65.5z"/>
		<path d="M68.9,711c0.5-0.1,1.2-0.2,2-0.2c1,0,1.8,0.2,2.3,0.7c0.4,0.4,0.7,1,0.7,1.7c0,0.7-0.2,1.3-0.6,1.7
			c-0.6,0.6-1.5,0.9-2.5,0.9c-0.3,0-0.6,0-0.8-0.1v3.2h-1V711z M70,714.9c0.2,0.1,0.5,0.1,0.9,0.1c1.3,0,2-0.6,2-1.7
			c0-1.1-0.8-1.6-1.9-1.6c-0.5,0-0.8,0-1,0.1V714.9z"/>
		<path d="M75.3,711c0.5-0.1,1.2-0.2,2-0.2c1,0,1.8,0.2,2.3,0.7c0.4,0.4,0.7,1,0.7,1.7c0,0.7-0.2,1.3-0.6,1.7
			c-0.6,0.6-1.5,0.9-2.5,0.9c-0.3,0-0.6,0-0.8-0.1v3.2h-1V711z M76.3,714.9c0.2,0.1,0.5,0.1,0.9,0.1c1.3,0,2-0.6,2-1.7
			c0-1.1-0.8-1.6-1.9-1.6c-0.5,0-0.8,0-1,0.1V714.9z"/>
		<path d="M81.5,717.7c0.5,0.3,1.2,0.5,1.9,0.5c1.1,0,1.7-0.6,1.7-1.4c0-0.8-0.4-1.2-1.5-1.6c-1.3-0.5-2.1-1.2-2.1-2.3
			c0-1.3,1-2.2,2.6-2.2c0.8,0,1.4,0.2,1.8,0.4l-0.3,0.9c-0.3-0.1-0.8-0.4-1.5-0.4c-1.1,0-1.5,0.7-1.5,1.2c0,0.8,0.5,1.1,1.6,1.6
			c1.4,0.5,2.1,1.2,2.1,2.4c0,1.2-0.9,2.3-2.8,2.3c-0.8,0-1.6-0.2-2.1-0.5L81.5,717.7z"/>
	</g>
	<rect x="25.7" y="745.8" style="fill:none;stroke:#D1D3D4;stroke-width:2;stroke-miterlimit:10;" width="41" height="41"/>
	<rect x="85.7" y="745.8" style="fill:none;stroke:#D1D3D4;stroke-width:2;stroke-miterlimit:10;" width="41" height="41"/>
	<g>
		<path style="fill:#7B7B7B;" d="M291.9,522.1l-1-47.1l14.9,14.2c19.7-25,25.7-55.6,14.4-75.1l-3.3-5.6l5.8,3c3.4,1.8,6.6,4,9.3,6.7
			c20.5,19.6,17,57.5-7.8,88.7l14.9,14.3L291.9,522.1z M326.2,418.3c8.3,21.3,1.2,50.5-18.9,74.9l-1.3,1.6l-11.2-10.7l0.8,34.2
			l34.2-0.8l-10.9-10.4l1.1-1.3c24.6-29.9,28.6-66.4,9.2-84.9C328.3,420,327.3,419.1,326.2,418.3L326.2,418.3z M326.2,418.3"/>
	</g>
</g>
<g id="Layer_2">
</g>
<g id="Layer_3">
</g>
</svg>
